<?xml version="1.0" standalone="no"?>
<!DOCTYPE svg PUBLIC "-//W3C//DTD SVG 20010904//EN"
 "http://www.w3.org/TR/2001/REC-SVG-20010904/DTD/svg10.dtd">
<svg version="1.0" xmlns="http://www.w3.org/2000/svg"
 width="644.000000pt" height="101.000000pt" viewBox="0 0 644.000000 101.000000"
 preserveAspectRatio="xMidYMid meet">

<g transform="translate(0.000000,101.000000) scale(0.100000,-0.100000)"
fill="#000000" stroke="none">
<path d="M0 505 l0 -505 3220 0 3220 0 0 505 0 505 -3220 0 -3220 0 0 -505z
m5618 -22 l2 -363 -60 0 -60 0 0 365 0 366 58 -3 57 -3 3 -362z m302 167 c0
-110 3 -200 8 -199 4 0 42 41 86 90 l79 89 73 0 c41 0 74 -3 74 -8 0 -4 -45
-52 -100 -107 -55 -55 -100 -102 -100 -105 0 -4 47 -68 105 -144 58 -76 105
-140 105 -142 0 -2 -33 -4 -72 -4 l-73 1 -75 109 c-70 102 -76 108 -92 93 -15
-13 -18 -33 -18 -110 l0 -93 -55 0 -55 0 0 365 0 365 55 0 55 0 0 -200z
m-1270 55 l0 -75 65 0 65 0 0 -45 0 -45 -65 0 -65 0 0 -147 c0 -82 4 -154 9
-162 9 -13 25 -12 77 4 17 5 24 -1 39 -35 19 -41 19 -42 -1 -54 -63 -37 -128
-45 -174 -21 -53 27 -60 56 -60 245 l0 170 -35 0 c-35 0 -35 0 -35 45 0 45 0
45 35 45 l35 0 0 50 c0 49 1 50 48 74 26 14 50 25 55 26 4 0 7 -34 7 -75z
m-4103 -76 c15 -6 38 -20 50 -31 21 -20 23 -20 40 -3 66 66 207 54 261 -22 33
-47 41 -105 42 -285 l0 -168 -59 0 -59 0 -4 186 c-3 181 -4 186 -27 205 -35
28 -68 24 -107 -15 l-34 -34 0 -171 0 -171 -59 0 -60 0 -3 184 c-3 164 -5 186
-22 205 -23 25 -58 27 -92 5 -47 -32 -54 -60 -54 -234 l0 -160 -60 0 -60 0 0
255 0 256 80 -2 c44 -2 83 0 86 4 11 11 110 8 141 -4z m909 -17 c52 -26 108
-88 125 -138 7 -22 13 -70 13 -109 0 -117 -62 -205 -170 -242 -95 -32 -210 0
-276 77 -43 49 -58 98 -58 181 1 122 66 213 180 250 41 14 142 3 186 -19z
m662 3 c17 -10 41 -37 54 -59 22 -39 23 -53 26 -238 l4 -198 -61 0 -61 0 0
164 c0 169 -9 219 -40 236 -49 26 -115 0 -149 -60 -19 -34 -21 -54 -21 -189
l0 -151 -60 0 -60 0 0 255 0 255 60 0 c47 0 60 -3 60 -15 0 -13 4 -14 22 -4
62 33 173 35 226 4z m569 14 c15 -6 38 -20 50 -31 21 -20 23 -20 40 -3 66 66
207 54 261 -22 33 -47 41 -105 42 -285 l0 -168 -59 0 -59 0 -4 186 c-3 181 -4
186 -27 205 -35 28 -68 24 -107 -15 l-34 -34 0 -171 0 -171 -59 0 -60 0 -3
184 c-3 164 -5 186 -22 205 -33 36 -90 21 -127 -35 -17 -26 -19 -48 -19 -191
l0 -163 -60 0 -60 0 0 255 0 256 80 -2 c44 -2 83 0 86 4 11 11 110 8 141 -4z
m909 -17 c52 -26 108 -88 125 -138 7 -22 13 -70 13 -109 0 -117 -62 -205 -170
-242 -95 -32 -210 0 -276 77 -43 49 -58 98 -58 181 1 122 66 213 180 250 41
14 142 3 186 -19z m662 3 c17 -10 41 -37 54 -59 22 -39 23 -53 26 -238 l4
-198 -61 0 -61 0 0 164 c0 169 -9 219 -40 236 -49 26 -115 0 -149 -60 -19 -34
-21 -54 -21 -189 l0 -151 -60 0 -60 0 0 255 0 255 60 0 c47 0 60 -3 60 -15 0
-13 4 -14 22 -4 62 33 173 35 226 4z m972 -9 c64 -42 73 -69 80 -256 4 -91 12
-178 18 -193 7 -16 12 -30 12 -33 0 -2 -25 -4 -55 -4 -57 0 -56 -1 -71 48 -3
10 -14 5 -39 -17 -87 -76 -240 -42 -280 63 -47 124 32 210 207 224 75 6 83 9
86 28 2 14 -7 29 -25 44 -40 31 -98 23 -136 -20 l-28 -32 -47 20 c-26 11 -48
25 -50 30 -5 15 56 81 92 99 80 41 173 41 236 -1z"/>
<path d="M1295 520 c-50 -20 -85 -83 -85 -152 0 -111 99 -180 191 -133 46 24
69 70 69 140 0 42 -6 70 -20 92 -32 53 -100 76 -155 53z"/>
<path d="M3435 520 c-73 -30 -107 -145 -68 -227 43 -92 170 -97 223 -10 27 44
27 140 0 184 -32 53 -100 76 -155 53z"/>
<path d="M5067 338 c-106 -28 -72 -134 36 -114 41 8 83 50 92 94 l7 32 -49 -1
c-26 -1 -65 -6 -86 -11z"/>
</g>
</svg>
